<svg width="407" height="537" viewBox="0 0 407 537" fill="none" xmlns="http://www.w3.org/2000/svg">
<rect width="406.502" height="537" fill="url(#paint0_linear_53_160)" style="mix-blend-mode:multiply"/>
<path d="M16.5854 511.296V510.565C16.5854 510.34 16.6248 510.107 16.7036 509.867C16.786 509.624 16.8988 509.393 17.042 509.174C17.1888 508.952 17.3553 508.763 17.5415 508.605L18.186 509.008C18.0428 509.233 17.9246 509.472 17.8315 509.722C17.742 509.969 17.6973 510.249 17.6973 510.56V511.296H16.5854ZM18.3472 511.296V510.565C18.3472 510.34 18.3866 510.107 18.4653 509.867C18.5477 509.624 18.6605 509.393 18.8037 509.174C18.9505 508.952 19.117 508.763 19.3032 508.605L19.9478 509.008C19.8045 509.233 19.6864 509.472 19.5933 509.722C19.5037 509.969 19.459 510.249 19.459 510.56V511.296H18.3472Z" fill="white"/>
<defs>
<linearGradient id="paint0_linear_53_160" x1="203.251" y1="0" x2="203.251" y2="537" gradientUnits="userSpaceOnUse">
<stop stop-color="white" stop-opacity="0"/>
<stop offset="1" stop-opacity="0.5"/>
</linearGradient>
</defs>
</svg>
