<svg width="60" height="60" viewBox="0 0 60 60" fill="none" xmlns="http://www.w3.org/2000/svg">
<rect width="60" height="60" rx="30" fill="#FFA9A9" fill-opacity="0.88"/>
<path d="M31.1424 47H29.249C27.4913 47.0003 25.7799 46.4957 24.3662 45.5604C22.9524 44.6251 21.911 43.3083 21.3948 41.8037L20.42 38.9738C20.2132 38.3724 20.2358 37.7265 20.4841 37.1378C20.7324 36.5491 21.1924 36.0511 21.7915 35.7223C21.8995 35.6605 24.0614 34.4047 25.5304 33.0012C25.5829 32.9509 25.6464 32.9109 25.717 32.8835C25.7876 32.8561 25.8637 32.842 25.9406 32.8421H34.4471C34.54 32.8421 34.6314 32.8628 34.7131 32.9021C34.7949 32.9415 34.8646 32.9984 34.9158 33.0677C35.8996 34.4 38.5392 35.6941 38.5654 35.7068L38.5902 35.7196C39.191 36.0478 39.6527 36.5459 39.9021 37.1352C40.1516 37.7245 40.1747 38.3715 39.9677 38.9738L38.9929 41.8037C38.4765 43.3082 37.435 44.6248 36.0213 45.5601C34.6077 46.4954 32.8963 47.0001 31.1387 47H31.1424ZM26.185 33.8494C24.6013 35.3059 22.4889 36.5207 22.3967 36.5738L22.3869 36.5792C21.9995 36.7908 21.7018 37.112 21.5411 37.4921C21.3803 37.8721 21.3655 38.2893 21.4991 38.6777L22.4694 41.5075C22.9154 42.8061 23.8145 43.9424 25.0347 44.7496C26.2549 45.5569 27.7319 45.9926 29.249 45.9927H31.1424C32.6595 45.9927 34.1365 45.5571 35.3567 44.7498C36.5768 43.9425 37.4757 42.8061 37.9213 41.5075L38.8924 38.6777C39.0251 38.2911 39.011 37.8761 38.8523 37.4974C38.6935 37.1188 38.3991 36.798 38.015 36.5852C37.7841 36.4717 35.3507 35.2569 34.1569 33.8494H26.185Z" fill="black"/>
<path d="M30.0326 38.6549C24.7003 38.6549 21.0446 37.9833 20.8474 37.943C20.7014 37.9154 20.5737 37.837 20.4923 37.7251C20.4108 37.6131 20.3824 37.4768 20.4132 37.3461C20.4441 37.2153 20.5316 37.1009 20.6566 37.028C20.7816 36.9551 20.9339 36.9296 21.0799 36.9572C21.1496 36.97 27.3136 38.1042 35.1835 37.4273C35.2576 37.42 35.3326 37.4259 35.4041 37.4447C35.4757 37.4635 35.5423 37.4949 35.6002 37.537C35.658 37.5792 35.706 37.6312 35.7412 37.69C35.7764 37.7489 35.7982 37.8134 35.8053 37.8799C35.8124 37.9463 35.8047 38.0134 35.7826 38.0772C35.7605 38.141 35.7245 38.2002 35.6766 38.2513C35.6287 38.3025 35.5699 38.3447 35.5037 38.3753C35.4374 38.406 35.3651 38.4245 35.2907 38.4299C33.4175 38.5931 31.6478 38.6549 30.0326 38.6549Z" fill="black"/>
<path d="M34.4464 33.8494C34.3066 33.8491 34.1719 33.8023 34.0685 33.718C33.9651 33.6338 33.9004 33.518 33.887 33.3934L32.217 17.6634C32.185 17.3544 32.0809 17.0549 31.9114 16.7842C31.742 16.5135 31.5109 16.2777 31.2332 16.0921C30.3056 15.4727 29.2018 15.1003 28.0485 15.0176L26.5052 33.384C26.4997 33.4502 26.4796 33.5147 26.4462 33.5739C26.4128 33.6331 26.3667 33.6858 26.3105 33.729C26.2544 33.7723 26.1893 33.8052 26.1189 33.8259C26.0485 33.8466 25.9743 33.8547 25.9004 33.8497C25.8266 33.8447 25.7546 33.8268 25.6885 33.7969C25.6223 33.767 25.5635 33.7257 25.5152 33.6754C25.4669 33.6251 25.4301 33.5668 25.407 33.5038C25.3839 33.4407 25.3748 33.3743 25.3804 33.3081L26.9634 14.4717C26.9736 14.3524 27.0307 14.2403 27.1247 14.1553C27.2186 14.0703 27.3433 14.0179 27.4763 14.0076C27.5678 14.0002 29.7402 13.8525 31.9006 15.2835C32.305 15.5529 32.6417 15.8953 32.8889 16.2887C33.1362 16.682 33.2884 17.1174 33.3358 17.5667L35.005 33.2967C35.0121 33.3625 35.0045 33.4289 34.9829 33.4921C34.9613 33.5553 34.9259 33.614 34.8789 33.665C34.8319 33.7159 34.7742 33.7581 34.709 33.789C34.6437 33.82 34.5724 33.8391 34.4989 33.8454C34.4815 33.8477 34.464 33.849 34.4464 33.8494Z" fill="black"/>
<path d="M32.0243 44.2319H28.1145C27.5793 44.2314 27.0537 44.1045 26.5908 43.8639C26.1279 43.6234 25.744 43.2778 25.4779 42.862C25.4132 42.7469 25.4003 42.6139 25.4418 42.4905C25.4832 42.367 25.576 42.2625 25.7009 42.1985C25.8259 42.1345 25.9735 42.1158 26.1133 42.1463C26.2532 42.1768 26.3746 42.2541 26.4527 42.3624C26.6202 42.6242 26.8618 42.8417 27.1532 42.9931C27.4445 43.1445 27.7753 43.2244 28.1122 43.2246H32.022C32.3362 43.2249 32.6456 43.1556 32.9227 43.023C33.1998 42.8904 33.436 42.6985 33.6103 42.4645C33.6932 42.3534 33.822 42.2764 33.9683 42.2504C34.1147 42.2244 34.2665 42.2515 34.3905 42.3258C34.5145 42.4001 34.6005 42.5154 34.6295 42.6464C34.6586 42.7775 34.6283 42.9135 34.5454 43.0245C34.2686 43.396 33.8936 43.7006 33.4538 43.9112C33.0141 44.1219 32.523 44.232 32.0243 44.2319Z" fill="black"/>
<path d="M18.5648 21.4992C18.4157 21.4992 18.2726 21.4462 18.1671 21.3517C18.0617 21.2573 18.0024 21.1292 18.0024 20.9956V20.504C18.0024 20.3704 18.0617 20.2423 18.1671 20.1479C18.2726 20.0534 18.4157 20.0004 18.5648 20.0004C18.714 20.0004 18.857 20.0534 18.9625 20.1479C19.068 20.2423 19.1272 20.3704 19.1272 20.504V20.9956C19.1272 21.1292 19.068 21.2573 18.9625 21.3517C18.857 21.4462 18.714 21.4992 18.5648 21.4992Z" fill="black"/>
<path d="M18.5648 24.4312C18.4157 24.4312 18.2726 24.3781 18.1671 24.2836C18.0617 24.1892 18.0024 24.0611 18.0024 23.9275V23.4359C18.0024 23.3024 18.0617 23.1743 18.1671 23.0798C18.2726 22.9854 18.4157 22.9323 18.5648 22.9323C18.714 22.9323 18.857 22.9854 18.9625 23.0798C19.068 23.1743 19.1272 23.3024 19.1272 23.4359V23.9275C19.1272 24.0611 19.068 24.1892 18.9625 24.2836C18.857 24.3781 18.714 24.4312 18.5648 24.4312Z" fill="black"/>
<path d="M17.2053 22.7194H16.6564C16.5072 22.7194 16.3642 22.6664 16.2587 22.5719C16.1532 22.4775 16.094 22.3494 16.094 22.2158C16.094 22.0822 16.1532 21.9541 16.2587 21.8596C16.3642 21.7652 16.5072 21.7121 16.6564 21.7121H17.2053C17.3544 21.7121 17.4975 21.7652 17.603 21.8596C17.7084 21.9541 17.7677 22.0822 17.7677 22.2158C17.7677 22.3494 17.7084 22.4775 17.603 22.5719C17.4975 22.6664 17.3544 22.7194 17.2053 22.7194Z" fill="black"/>
<path d="M20.4792 22.7194H19.9303C19.7812 22.7194 19.6381 22.6664 19.5327 22.5719C19.4272 22.4775 19.3679 22.3494 19.3679 22.2158C19.3679 22.0822 19.4272 21.9541 19.5327 21.8596C19.6381 21.7652 19.7812 21.7121 19.9303 21.7121H20.4792C20.6284 21.7121 20.7714 21.7652 20.8769 21.8596C20.9824 21.9541 21.0416 22.0822 21.0416 22.2158C21.0416 22.3494 20.9824 22.4775 20.8769 22.5719C20.7714 22.6664 20.6284 22.7194 20.4792 22.7194Z" fill="black"/>
<path d="M43.0107 31.1827C42.8615 31.1827 42.7185 31.1297 42.613 31.0352C42.5076 30.9408 42.4483 30.8127 42.4483 30.6791V30.1875C42.4483 30.054 42.5076 29.9259 42.613 29.8314C42.7185 29.7369 42.8615 29.6839 43.0107 29.6839C43.1599 29.6839 43.3029 29.7369 43.4084 29.8314C43.5139 29.9259 43.5731 30.054 43.5731 30.1875V30.6791C43.5731 30.8127 43.5139 30.9408 43.4084 31.0352C43.3029 31.1297 43.1599 31.1827 43.0107 31.1827Z" fill="black"/>
<path d="M43.0107 34.1147C42.8615 34.1147 42.7185 34.0616 42.613 33.9671C42.5076 33.8727 42.4483 33.7446 42.4483 33.611V33.1195C42.4483 32.9859 42.5076 32.8578 42.613 32.7633C42.7185 32.6689 42.8615 32.6158 43.0107 32.6158C43.1599 32.6158 43.3029 32.6689 43.4084 32.7633C43.5139 32.8578 43.5731 32.9859 43.5731 33.1195V33.611C43.5731 33.7446 43.5139 33.8727 43.4084 33.9671C43.3029 34.0616 43.1599 34.1147 43.0107 34.1147Z" fill="black"/>
<path d="M41.6459 32.4029H41.097C40.9479 32.4029 40.8048 32.3498 40.6993 32.2554C40.5939 32.1609 40.5346 32.0328 40.5346 31.8993C40.5346 31.7657 40.5939 31.6376 40.6993 31.5431C40.8048 31.4487 40.9479 31.3956 41.097 31.3956H41.6459C41.7951 31.3956 41.9381 31.4487 42.0436 31.5431C42.1491 31.6376 42.2083 31.7657 42.2083 31.8993C42.2083 32.0328 42.1491 32.1609 42.0436 32.2554C41.9381 32.3498 41.7951 32.4029 41.6459 32.4029Z" fill="black"/>
<path d="M44.9199 32.4029H44.3709C44.2218 32.4029 44.0787 32.3498 43.9733 32.2554C43.8678 32.1609 43.8085 32.0328 43.8085 31.8993C43.8085 31.7657 43.8678 31.6376 43.9733 31.5431C44.0787 31.4487 44.2218 31.3956 44.3709 31.3956H44.9199C45.069 31.3956 45.2121 31.4487 45.3175 31.5431C45.423 31.6376 45.4823 31.7657 45.4823 31.8993C45.4823 32.0328 45.423 32.1609 45.3175 32.2554C45.2121 32.3498 45.069 32.4029 44.9199 32.4029Z" fill="black"/>
<path d="M15.4738 37.7181C15.3247 37.7181 15.1816 37.665 15.0761 37.5706C14.9707 37.4761 14.9114 37.348 14.9114 37.2145V36.7236C14.9114 36.59 14.9707 36.4619 15.0761 36.3674C15.1816 36.273 15.3247 36.2199 15.4738 36.2199C15.623 36.2199 15.766 36.273 15.8715 36.3674C15.977 36.4619 16.0362 36.59 16.0362 36.7236V37.2145C16.0362 37.348 15.977 37.4761 15.8715 37.5706C15.766 37.665 15.623 37.7181 15.4738 37.7181Z" fill="black"/>
<path d="M15.4738 40.6507C15.3247 40.6507 15.1816 40.5976 15.0761 40.5032C14.9707 40.4087 14.9114 40.2806 14.9114 40.147V39.6555C14.9114 39.5219 14.9707 39.3938 15.0761 39.2993C15.1816 39.2049 15.3247 39.1518 15.4738 39.1518C15.623 39.1518 15.766 39.2049 15.8715 39.2993C15.977 39.3938 16.0362 39.5219 16.0362 39.6555V40.147C16.0362 40.2806 15.977 40.4087 15.8715 40.5032C15.766 40.5976 15.623 40.6507 15.4738 40.6507Z" fill="black"/>
<path d="M14.1113 38.9389H13.5624C13.4132 38.9389 13.2702 38.8859 13.1647 38.7914C13.0592 38.697 13 38.5689 13 38.4353C13 38.3017 13.0592 38.1736 13.1647 38.0791C13.2702 37.9847 13.4132 37.9316 13.5624 37.9316H14.1113C14.2605 37.9316 14.4035 37.9847 14.509 38.0791C14.6145 38.1736 14.6737 38.3017 14.6737 38.4353C14.6737 38.5689 14.6145 38.697 14.509 38.7914C14.4035 38.8859 14.2605 38.9389 14.1113 38.9389Z" fill="black"/>
<path d="M16.8401 38.9389C16.6909 38.9389 16.5479 38.8859 16.4424 38.7914C16.3369 38.697 16.2777 38.5689 16.2777 38.4353C16.2777 38.3017 16.3369 38.1736 16.4424 38.0791C16.5479 37.9847 16.6909 37.9316 16.8401 37.9316H17.389C17.5382 37.9316 17.6812 37.9847 17.7867 38.0791C17.8922 38.1736 17.9514 38.3017 17.9514 38.4353C17.9514 38.5689 17.8922 38.697 17.7867 38.7914C17.6812 38.8859 17.5382 38.9389 17.389 38.9389H16.8401Z" fill="black"/>
<path d="M18.2596 32.4761C17.9437 32.4761 17.6349 32.3922 17.3722 32.2351C17.1096 32.0779 16.9048 31.8545 16.784 31.5931C16.6631 31.3318 16.6314 31.0442 16.6931 30.7667C16.7547 30.4892 16.9068 30.2344 17.1302 30.0343C17.3536 29.8343 17.6382 29.6981 17.948 29.6429C18.2578 29.5877 18.579 29.616 18.8708 29.7243C19.1627 29.8325 19.4121 30.0159 19.5877 30.2511C19.7632 30.4863 19.8568 30.7629 19.8568 31.0458C19.8564 31.425 19.688 31.7886 19.3886 32.0568C19.0891 32.3249 18.6831 32.4758 18.2596 32.4761ZM18.2596 30.6227C18.1662 30.6227 18.0748 30.6475 17.9971 30.694C17.9195 30.7405 17.8589 30.8065 17.8231 30.8839C17.7874 30.9612 17.778 31.0462 17.7963 31.1283C17.8145 31.2104 17.8595 31.2857 17.9256 31.3449C17.9916 31.4041 18.0758 31.4444 18.1674 31.4607C18.2591 31.477 18.3541 31.4686 18.4404 31.4366C18.5267 31.4046 18.6005 31.3504 18.6524 31.2808C18.7043 31.2112 18.732 31.1294 18.732 31.0458C18.7318 30.9336 18.682 30.8261 18.5934 30.7468C18.5049 30.6675 18.3848 30.6229 18.2596 30.6227Z" fill="black"/>
<path d="M45.4035 43.1159C45.0876 43.116 44.7787 43.0322 44.516 42.8751C44.2532 42.718 44.0483 42.4947 43.9273 42.2333C43.8063 41.972 43.7746 41.6844 43.8361 41.4069C43.8977 41.1294 44.0498 40.8744 44.2731 40.6743C44.4965 40.4742 44.781 40.3379 45.0909 40.2827C45.4007 40.2274 45.7219 40.2557 46.0138 40.364C46.3057 40.4722 46.5552 40.6555 46.7308 40.8908C46.9063 41.126 47 41.4026 47 41.6855C46.9996 42.0646 46.8313 42.4281 46.532 42.6963C46.2327 42.9644 45.8269 43.1153 45.4035 43.1159ZM45.4035 41.2624C45.3101 41.2623 45.2186 41.287 45.1409 41.3334C45.0631 41.3798 45.0024 41.4458 44.9665 41.5231C44.9307 41.6004 44.9212 41.6855 44.9393 41.7676C44.9575 41.8497 45.0024 41.9252 45.0685 41.9844C45.1345 42.0437 45.2187 42.084 45.3103 42.1004C45.402 42.1168 45.497 42.1084 45.5834 42.0764C45.6698 42.0444 45.7436 41.9902 45.7955 41.9206C45.8475 41.851 45.8752 41.7692 45.8752 41.6855C45.8752 41.5734 45.8255 41.4658 45.7371 41.3864C45.6487 41.3069 45.5288 41.2628 45.4035 41.2624Z" fill="black"/>
<path d="M30.7412 18.3189C30.6443 18.3183 30.5492 18.2952 30.4653 18.2517C27.4103 16.7072 26.9896 14.6778 26.9731 14.5925C26.9514 14.4626 26.9872 14.3302 27.073 14.2235C27.1587 14.1169 27.2877 14.0445 27.4322 14.0218C27.5767 13.9991 27.7254 14.0279 27.8466 14.1021C27.9678 14.1762 28.0518 14.2898 28.0807 14.4186C28.0972 14.4945 28.4661 16.0854 31.0179 17.3734C31.125 17.4286 31.2088 17.5138 31.2564 17.6159C31.304 17.718 31.3127 17.8313 31.2812 17.9382C31.2497 18.0452 31.1798 18.1399 31.0822 18.2078C30.9846 18.2756 30.8648 18.3128 30.7412 18.3135V18.3189Z" fill="black"/>
</svg>
