<svg width="60" height="60" viewBox="0 0 60 60" fill="none" xmlns="http://www.w3.org/2000/svg">
<rect width="60" height="60" rx="30" fill="#FFA9A9" fill-opacity="0.88"/>
<path d="M32.8032 46C32.6886 46 32.5787 45.9636 32.4977 45.8987C32.4166 45.8338 32.3711 45.7458 32.3711 45.654V32.5835C32.3721 31.9362 32.1938 31.2967 31.849 30.7111C31.5042 30.1256 31.0015 29.6086 30.3771 29.1974C30.3333 29.1684 30.2971 29.1329 30.2705 29.0927C30.2439 29.0526 30.2274 29.0087 30.222 28.9634C30.2166 28.9182 30.2223 28.8725 30.239 28.8291C30.2556 28.7856 30.2828 28.7452 30.3189 28.7102C30.355 28.6751 30.3994 28.6461 30.4495 28.6248C30.4997 28.6035 30.5545 28.5903 30.611 28.586C30.6675 28.5817 30.7245 28.5863 30.7788 28.5996C30.8331 28.6129 30.8835 28.6347 30.9273 28.6636C31.6503 29.1398 32.2323 29.7386 32.6314 30.4167C33.0305 31.0948 33.2368 31.8353 33.2353 32.5849V45.6554C33.2349 45.7469 33.1891 45.8346 33.1082 45.8992C33.0272 45.9638 32.9175 46 32.8032 46Z" fill="black"/>
<path d="M19.8393 46C19.7247 46 19.6148 45.9636 19.5338 45.8987C19.4528 45.8338 19.4072 45.7458 19.4072 45.654V32.5835C19.4058 31.8339 19.6121 31.0934 20.0112 30.4153C20.4103 29.7372 20.9923 29.1385 21.7153 28.6622C21.8037 28.6038 21.9174 28.5759 22.0315 28.5846C22.088 28.5889 22.1429 28.6021 22.193 28.6234C22.2432 28.6447 22.2876 28.6738 22.3237 28.7088C22.3598 28.7438 22.387 28.7842 22.4036 28.8277C22.4202 28.8711 22.426 28.9168 22.4206 28.962C22.4152 29.0073 22.3987 29.0512 22.3721 29.0913C22.3455 29.1315 22.3093 29.167 22.2655 29.196C21.6411 29.6072 21.1384 30.1242 20.7935 30.7097C20.4487 31.2953 20.2704 31.9348 20.2715 32.5821V45.6526C20.2717 45.6982 20.2607 45.7433 20.2391 45.7855C20.2174 45.8276 20.1856 45.8659 20.1455 45.8982C20.1054 45.9304 20.0576 45.9561 20.0051 45.9735C19.9526 45.991 19.8962 46 19.8393 46Z" fill="black"/>
<path d="M29.2743 36.6451H23.3683C22.9076 36.6448 22.4658 36.498 22.1401 36.2372C21.8143 35.9763 21.6311 35.6226 21.6306 35.2537V27.4411C21.632 26.4799 22.1095 25.5584 22.9584 24.8788C23.8072 24.1991 24.9581 23.8169 26.1585 23.8159H26.4846C27.6849 23.817 28.8357 24.1993 29.6844 24.8789C30.5332 25.5585 31.0106 26.48 31.012 27.4411V35.2537C31.0115 35.6226 30.8283 35.9763 30.5025 36.2372C30.1768 36.498 29.735 36.6448 29.2743 36.6451ZM26.1585 24.5079C25.1872 24.5086 24.256 24.8179 23.5691 25.3678C22.8823 25.9177 22.4959 26.6633 22.4948 27.4411V35.2537C22.4951 35.4392 22.5873 35.6169 22.751 35.748C22.9147 35.8791 23.1367 35.9529 23.3683 35.9531H29.2743C29.5059 35.9529 29.7279 35.8791 29.8916 35.748C30.0553 35.6169 30.1475 35.4392 30.1478 35.2537V27.4411C30.1467 26.6634 29.7604 25.9178 29.0737 25.368C28.3869 24.8181 27.4558 24.5088 26.4846 24.5079H26.1585Z" fill="black"/>
<path d="M28.5501 38.4655H24.0925C23.9779 38.4655 23.8679 38.4291 23.7869 38.3642C23.7059 38.2993 23.6603 38.2113 23.6603 38.1195C23.6603 38.0278 23.7059 37.9398 23.7869 37.8749C23.8679 37.81 23.9779 37.7735 24.0925 37.7735H28.5501C28.6647 37.7735 28.7746 37.81 28.8556 37.8749C28.9367 37.9398 28.9822 38.0278 28.9822 38.1195C28.9822 38.2113 28.9367 38.2993 28.8556 38.3642C28.7746 38.4291 28.6647 38.4655 28.5501 38.4655Z" fill="black"/>
<path d="M45.7539 24.661C45.717 24.6613 45.6803 24.6575 45.6447 24.6495L38.1822 23.0247C38.1249 23.0122 38.0715 22.9899 38.026 22.9592C37.9804 22.9285 37.9437 22.8901 37.9184 22.8468C37.8931 22.8035 37.8798 22.7563 37.8794 22.7084C37.8791 22.6605 37.8916 22.6132 37.9163 22.5696L42.6444 14.1932C42.6847 14.122 42.755 14.0647 42.8428 14.0314C42.9306 13.9981 43.0302 13.991 43.1239 14.0114L47.0078 14.8569C47.1015 14.8774 47.1831 14.924 47.2382 14.9885C47.2933 15.0529 47.3183 15.131 47.3087 15.2089L46.1586 24.363C46.1485 24.4444 46.1012 24.5199 46.0259 24.5747C45.9506 24.6296 45.8527 24.6598 45.7512 24.6597L45.7539 24.661ZM38.8654 22.4913L45.3962 23.9132L46.4622 15.4233L43.25 14.7239L38.8654 22.4913Z" fill="black"/>
<path d="M40.0286 29.797C39.9917 29.797 39.955 29.7931 39.9194 29.7855C39.8145 29.7626 39.7252 29.7071 39.671 29.6312C39.6168 29.5553 39.6023 29.4652 39.6305 29.3806L41.5844 23.5528C41.6139 23.4694 41.683 23.3986 41.7767 23.3559C41.8704 23.3132 41.9812 23.3019 42.0851 23.3245C42.1891 23.3471 42.2778 23.4018 42.3321 23.4767C42.3864 23.5517 42.4018 23.6408 42.3752 23.7249L40.4212 29.5527C40.398 29.6225 40.347 29.6841 40.2761 29.7283C40.2052 29.7724 40.1182 29.7965 40.0286 29.797Z" fill="black"/>
<path d="M39.9287 33.8283C39.8918 33.8286 39.855 33.8247 39.8194 33.8168L37.4892 33.3089C37.4346 33.297 37.3836 33.2761 37.3395 33.2476C37.2954 33.219 37.2591 33.1834 37.2329 33.1429C37.2068 33.1025 37.1913 33.0581 37.1875 33.0126C37.1836 32.9671 37.1916 32.9214 37.2107 32.8785L37.866 31.4059C38.127 30.8213 38.5301 30.2845 39.0516 29.8269L39.7277 29.2323C39.7784 29.1877 39.8434 29.1551 39.9156 29.1383C39.9877 29.1214 40.0642 29.1208 40.1367 29.1367C40.2092 29.1525 40.2749 29.184 40.3266 29.2279C40.3783 29.2718 40.4141 29.3263 40.43 29.3854L40.643 30.1776C40.8054 30.7808 40.8176 31.404 40.679 32.0111L40.3284 33.5567C40.3112 33.6326 40.2615 33.7013 40.1879 33.7507C40.1144 33.8002 40.0217 33.8273 39.9259 33.8274L39.9287 33.8283ZM38.132 32.7654L39.6065 33.0862L39.8795 31.8931C39.9984 31.3716 39.9878 30.8362 39.8484 30.318L39.8025 30.1486L39.6616 30.2727C39.2132 30.6658 38.8669 31.1273 38.6431 31.63L38.132 32.7654Z" fill="black"/>
<path d="M13.7264 22.9791C13.6222 22.9791 13.5222 22.9462 13.4486 22.8876C13.3749 22.829 13.3335 22.7495 13.3335 22.6667V22.3617C13.3335 22.2789 13.3749 22.1994 13.4486 22.1408C13.5222 22.0822 13.6222 22.0493 13.7264 22.0493C13.8306 22.0493 13.9306 22.0822 14.0043 22.1408C14.078 22.1994 14.1194 22.2789 14.1194 22.3617V22.6667C14.1194 22.7495 14.078 22.829 14.0043 22.8876C13.9306 22.9462 13.8306 22.9791 13.7264 22.9791Z" fill="black"/>
<path d="M13.7264 24.7978C13.6222 24.7978 13.5222 24.7649 13.4486 24.7063C13.3749 24.6477 13.3335 24.5682 13.3335 24.4854V24.1804C13.3335 24.0976 13.3749 24.0181 13.4486 23.9595C13.5222 23.9009 13.6222 23.868 13.7264 23.868C13.8306 23.868 13.9306 23.9009 14.0043 23.9595C14.078 24.0181 14.1194 24.0976 14.1194 24.1804V24.4854C14.1194 24.5682 14.078 24.6477 14.0043 24.7063C13.9306 24.7649 13.8306 24.7978 13.7264 24.7978Z" fill="black"/>
<path d="M12.7765 23.736H12.393C12.2887 23.736 12.1888 23.7031 12.1151 23.6445C12.0414 23.5859 12 23.5064 12 23.4236C12 23.3407 12.0414 23.2612 12.1151 23.2026C12.1888 23.1441 12.2887 23.1111 12.393 23.1111H12.7765C12.8807 23.1111 12.9807 23.1441 13.0544 23.2026C13.1281 23.2612 13.1695 23.3407 13.1695 23.4236C13.1695 23.5064 13.1281 23.5859 13.0544 23.6445C12.9807 23.7031 12.8807 23.736 12.7765 23.736Z" fill="black"/>
<path d="M15.0641 23.736H14.6805C14.5763 23.736 14.4764 23.7031 14.4027 23.6445C14.329 23.5859 14.2876 23.5064 14.2876 23.4236C14.2876 23.3407 14.329 23.2612 14.4027 23.2026C14.4764 23.1441 14.5763 23.1111 14.6805 23.1111H15.0641C15.1683 23.1111 15.2682 23.1441 15.3419 23.2026C15.4156 23.2612 15.457 23.3407 15.457 23.4236C15.457 23.5064 15.4156 23.5859 15.3419 23.6445C15.2682 23.7031 15.1683 23.736 15.0641 23.736Z" fill="black"/>
<path d="M43.1112 40.255C43.007 40.255 42.907 40.222 42.8333 40.1635C42.7596 40.1049 42.7182 40.0254 42.7182 39.9425V39.6376C42.7182 39.5548 42.7596 39.4753 42.8333 39.4167C42.907 39.3581 43.007 39.3252 43.1112 39.3252C43.2154 39.3252 43.3154 39.3581 43.3891 39.4167C43.4628 39.4753 43.5041 39.5548 43.5041 39.6376V39.9425C43.5041 40.0254 43.4628 40.1049 43.3891 40.1635C43.3154 40.222 43.2154 40.255 43.1112 40.255Z" fill="black"/>
<path d="M43.1112 42.0737C43.007 42.0737 42.907 42.0408 42.8333 41.9822C42.7596 41.9236 42.7182 41.8441 42.7182 41.7612V41.4563C42.7182 41.3735 42.7596 41.294 42.8333 41.2354C42.907 41.1768 43.007 41.1439 43.1112 41.1439C43.2154 41.1439 43.3154 41.1768 43.3891 41.2354C43.4628 41.294 43.5041 41.3735 43.5041 41.4563V41.7612C43.5041 41.8441 43.4628 41.9236 43.3891 41.9822C43.3154 42.0408 43.2154 42.0737 43.1112 42.0737Z" fill="black"/>
<path d="M42.1613 41.0119H41.7777C41.6735 41.0119 41.5736 40.9789 41.4999 40.9204C41.4262 40.8618 41.3848 40.7823 41.3848 40.6994C41.3848 40.6166 41.4262 40.5371 41.4999 40.4785C41.5736 40.4199 41.6735 40.387 41.7777 40.387H42.1613C42.2655 40.387 42.3654 40.4199 42.4391 40.4785C42.5128 40.5371 42.5542 40.6166 42.5542 40.6994C42.5542 40.7823 42.5128 40.8618 42.4391 40.9204C42.3654 40.9789 42.2655 41.0119 42.1613 41.0119Z" fill="black"/>
<path d="M44.4488 41.0119H44.0653C43.9611 41.0119 43.8611 40.9789 43.7874 40.9204C43.7137 40.8618 43.6723 40.7823 43.6723 40.6994C43.6723 40.6166 43.7137 40.5371 43.7874 40.4785C43.8611 40.4199 43.9611 40.387 44.0653 40.387H44.4488C44.5531 40.387 44.653 40.4199 44.7267 40.4785C44.8004 40.5371 44.8418 40.6166 44.8418 40.6994C44.8418 40.7823 44.8004 40.8618 44.7267 40.9204C44.653 40.9789 44.5531 41.0119 44.4488 41.0119Z" fill="black"/>
</svg>
