<svg width="60" height="61" viewBox="0 0 60 61" fill="none" xmlns="http://www.w3.org/2000/svg">
<rect y="0.5" width="60" height="60" rx="30" fill="#FFA9A9" fill-opacity="0.88"/>
<path d="M39.8054 39.6708C39.8186 39.6744 39.8323 39.6757 39.8457 39.6774C40.0549 39.7154 40.2673 39.7366 40.4761 39.7366C41.2001 39.7366 41.8485 39.5074 42.2807 39.1484C42.5655 39.5286 43.0884 40.0098 43.913 40.0098H43.924C44.3686 40.0073 44.6361 39.8754 44.7197 39.6169C44.81 39.3377 44.6149 39.0409 44.3822 38.8707C44.3764 38.8663 44.3708 38.8622 44.3656 38.858C44.4634 38.7839 44.7422 38.5342 44.7422 38.0976C44.7422 37.6489 44.4481 37.398 44.3576 37.3312C44.3261 37.308 44.3066 37.2897 44.2947 37.2766C44.3061 37.2649 44.3244 37.2485 44.3532 37.2285C44.6631 37.0105 44.7943 36.7664 44.7229 36.5399C44.6105 36.1863 44.111 36.186 43.9228 36.186H43.9223C43.0939 36.186 42.5682 36.6679 42.2816 37.0481C41.8495 36.6887 41.2009 36.4592 40.4763 36.4592C40.2642 36.4592 40.0481 36.4811 39.8352 36.5202C39.8274 36.5216 39.8196 36.5221 39.8118 36.5241C38.819 36.7135 37.9141 37.3073 37.9141 38.0982C37.9141 38.8869 38.8152 39.4799 39.8055 39.6708L39.8054 39.6708ZM42.1088 37.6399C42.1112 37.6431 42.1136 37.6463 42.1163 37.6492C42.2226 37.7872 42.2841 37.9389 42.2841 38.0979C42.2841 38.2571 42.2226 38.4091 42.1161 38.5468C42.1139 38.5495 42.1117 38.552 42.1095 38.5547C41.8232 38.9175 41.2148 39.177 40.5227 39.1887C40.7753 38.8714 40.9187 38.4915 40.9187 38.0976C40.9187 37.7037 40.7756 37.3238 40.5227 37.0065C41.2143 37.0183 41.8227 37.2775 42.1087 37.6399L42.1088 37.6399ZM43.9224 36.7323H43.9229C43.9938 36.7323 44.0504 36.7352 44.095 36.7393C44.0784 36.753 44.0599 36.7674 44.0389 36.7818C43.8392 36.9225 43.7368 37.0866 43.7348 37.2702C43.7326 37.4556 43.8334 37.6246 44.0343 37.7716C44.0723 37.7997 44.1962 37.9055 44.1962 38.0977C44.1962 38.2898 44.0723 38.3959 44.0345 38.4237C43.9148 38.5115 43.7509 38.6317 43.7514 38.8475C43.7517 39.0587 43.9163 39.2063 44.0601 39.3114C44.1148 39.3514 44.1553 39.3987 44.1772 39.434C44.1353 39.4472 44.057 39.4623 43.9219 39.463H43.9143C43.25 39.463 42.8467 39.0192 42.6511 38.7241C42.7665 38.5308 42.8309 38.3193 42.8309 38.0974C42.8309 37.8757 42.7667 37.6646 42.6514 37.4714C42.8479 37.1769 43.2545 36.7323 43.9224 36.7323L43.9224 36.7323ZM39.8172 37.08C40.17 37.3405 40.3722 37.7056 40.3722 38.0979C40.3722 38.4903 40.17 38.8556 39.8172 39.1158C39.0678 38.95 38.4601 38.5276 38.4601 38.0979C38.4601 37.6682 39.0678 37.2459 39.8172 37.08Z" fill="black"/>
<path d="M46.6543 22.803H46.108C45.8068 22.803 45.5618 23.048 45.5618 23.3492V24.1672C44.1846 24.1528 43.4821 24.0296 42.741 23.8994C42.3091 23.8236 41.8684 23.7465 41.2863 23.6928L45.5473 11.1466C45.5756 11.0629 45.562 10.9712 45.5105 10.8998C45.4593 10.8281 45.3766 10.7856 45.2886 10.7856H37.0948C36.9612 10.7856 36.8473 10.8822 36.8256 11.0137L34.9152 22.4756C34.8615 22.7379 34.7054 23.3159 34.4572 24.1377C34.1173 24.1575 33.7302 24.1689 33.2711 24.1689C31.7089 24.1689 30.8968 24.0382 30.0369 23.8995C30.0277 23.898 30.0184 23.8965 30.0091 23.8951L34.3489 11.1471C34.3772 11.0637 34.3641 10.9718 34.3126 10.9004C34.2611 10.8287 34.1785 10.786 34.0904 10.786H26.1695C26.0359 10.786 25.922 10.8826 25.9003 11.014L24.263 20.8371C24.191 21.1898 23.8786 22.3032 23.3534 23.9357C22.6467 24.0603 21.9131 24.1693 20.488 24.1693C18.9273 24.1693 18.1691 24.0386 17.3661 23.9003C16.6221 23.772 15.8539 23.6399 14.4249 23.6247V23.3499C14.4249 23.0487 14.1798 22.8037 13.8786 22.8037H13.3324C13.0312 22.8037 12.7861 23.0487 12.7861 23.3499V43.0149C12.7861 44.2196 13.7664 45.1999 14.9711 45.1999H45.0149C46.2196 45.1999 47.1999 44.2196 47.1999 43.0149V23.3499C47.2002 23.0487 46.9551 22.8037 46.6539 22.8037L46.6543 22.803ZM14.6334 41.554C14.6348 41.5562 14.636 41.5584 14.6375 41.5604C14.7855 41.7723 14.9294 42.0459 15.0555 42.3988C14.8431 42.4151 14.6341 42.4307 14.4253 42.4466V41.2958C14.4946 41.3697 14.5641 41.4557 14.6333 41.554L14.6334 41.554ZM16.4065 41.5423C16.5923 41.279 16.7827 41.1119 16.9483 41.0073C16.7959 41.4562 16.7137 41.9025 16.6669 42.2756C16.4462 42.2924 16.2226 42.3095 16.0048 42.3261C16.1231 42.01 16.2555 41.7598 16.3916 41.5633C16.397 41.5564 16.4016 41.5496 16.4065 41.5423L16.4065 41.5423ZM15.5185 42.0744C15.4047 41.7833 15.2781 41.5399 15.1457 41.3368C15.2388 40.7966 15.3642 40.3443 15.5176 40.007C15.6714 40.3442 15.797 40.7964 15.8902 41.3365C15.758 41.5404 15.6317 41.7838 15.5185 42.0744V42.0744ZM15.8994 42.8823C20.0958 42.5602 24.8523 42.1951 29.9933 42.1951C31.9249 42.1951 33.802 42.2468 35.6158 42.328C35.6182 42.328 35.6202 42.329 35.6226 42.329C35.6241 42.329 35.6253 42.3285 35.6265 42.3285C38.6358 42.4641 41.47 42.6814 44.0868 42.8818C44.5743 42.9191 45.0501 42.9555 45.5186 42.9911C45.412 43.3203 45.1065 43.5605 44.7423 43.5605H15.2448C14.8807 43.5605 14.575 43.32 14.4686 42.9911C14.9365 42.956 15.4121 42.9196 15.8996 42.8823L15.8994 42.8823ZM34.2984 40.4608C34.4645 40.5652 34.6554 40.7317 34.8415 40.9951C34.8454 41.0012 34.8488 41.007 34.8532 41.0126C34.9883 41.2075 35.1202 41.454 35.2383 41.7666C35.0207 41.7574 34.8008 41.7498 34.5813 41.7415C34.535 41.3643 34.4521 40.9136 34.2984 40.4607L34.2984 40.4608ZM36.6173 40.9951C36.8036 40.7315 36.9946 40.5649 37.1607 40.4603C36.989 40.9673 36.9053 41.4706 36.8639 41.8442C36.6451 41.8327 36.4252 41.8215 36.2042 41.8108C36.3257 41.4787 36.4632 41.2187 36.6039 41.0151C36.6088 41.0087 36.613 41.0022 36.6173 40.9951L36.6173 40.9951ZM35.7297 41.5262C35.616 41.2353 35.4897 40.9929 35.3568 40.7888C35.4502 40.2491 35.5755 39.797 35.7294 39.4605C35.8828 39.7973 36.0084 40.2497 36.1018 40.7898C35.9691 40.9937 35.8428 41.2361 35.7297 41.5263V41.5262ZM35.4521 22.5754L37.326 11.332H44.9073L40.7232 23.6523C40.3835 23.6337 40.0004 23.6225 39.5529 23.6225C37.9446 23.6225 37.1416 23.7635 36.3644 23.8998C35.952 23.9722 35.5504 24.0422 35.0391 24.0927C35.2602 23.3511 35.4009 22.8253 35.4522 22.5751L35.4521 22.5754ZM42.9417 27.9399C42.9797 27.9677 43.1036 28.074 43.1036 28.2659C43.1036 28.4581 42.9797 28.5641 42.942 28.592C42.8222 28.6797 42.6583 28.8 42.6588 29.0158C42.6591 29.227 42.8237 29.3745 42.9676 29.4796C43.0222 29.5196 43.0627 29.5669 43.0846 29.6023C43.0427 29.6154 42.9644 29.6306 42.8293 29.6313H42.8217C42.1577 29.6313 41.7543 29.1875 41.5585 28.8924C41.6741 28.699 41.7383 28.4876 41.7383 28.2657C41.7383 28.044 41.6741 27.8326 41.5588 27.6397C41.7558 27.3446 42.1619 26.9 42.8303 26.9H42.8308C42.9017 26.9 42.9583 26.903 43.0029 26.9074C42.9863 26.921 42.9678 26.9352 42.9468 26.9498C42.7471 27.0903 42.6447 27.2546 42.6427 27.4382C42.6403 27.6233 42.7413 27.7923 42.9417 27.9399L42.9417 27.9399ZM41.0164 27.8077C41.0188 27.8109 41.0215 27.814 41.024 27.8172C41.1303 27.9552 41.1915 28.1069 41.1915 28.2659C41.1915 28.4247 41.1303 28.5761 41.0245 28.7141C41.0215 28.7178 41.0186 28.721 41.0159 28.7246C40.7294 29.0867 40.1212 29.346 39.4299 29.3572C39.6825 29.0399 39.8256 28.6597 39.8256 28.2661C39.8256 27.8725 39.6825 27.4923 39.4299 27.1751C40.1217 27.1863 40.7301 27.445 41.0164 27.8077L41.0164 27.8077ZM37.368 28.2659C37.368 27.8362 37.9755 27.4139 38.7248 27.248C39.0777 27.5082 39.2799 27.8735 39.2799 28.2659C39.2799 28.6588 39.0777 29.0236 38.7251 29.2838C37.9754 29.118 37.368 28.6958 37.368 28.2659H37.368ZM39.91 26.0763C39.8464 26.2604 39.7842 26.4516 39.7274 26.6467C39.6152 26.635 39.5011 26.6272 39.384 26.6272C39.1709 26.6272 38.9541 26.6491 38.7405 26.6886C38.7339 26.6896 38.7273 26.6903 38.7207 26.6918C37.7275 26.881 36.8217 27.4751 36.8217 28.2659C36.8217 29.0548 37.7228 29.6479 38.7131 29.8388C38.7263 29.8425 38.74 29.8437 38.7534 29.8454C38.9629 29.8834 39.1753 29.9047 39.384 29.9047C39.7011 29.9047 40.0035 29.86 40.28 29.7808C40.3683 29.9244 40.4597 30.07 40.5558 30.2207C40.6863 30.4253 40.8221 30.638 40.9577 30.8643C41.2177 31.2976 41.2825 31.7393 41.1504 32.1775C40.9553 32.8232 40.3993 33.2839 39.9854 33.4807C39.6509 33.6341 39.1051 33.8235 38.5274 34.0233C37.7197 34.303 36.8845 34.5924 36.4151 34.8561C35.6915 35.2616 35.2429 35.6354 34.7005 36.2846C34.5095 36.5136 34.3503 36.698 34.2028 36.8689C33.9199 37.1967 33.6753 37.4798 33.3246 37.9367C32.1458 39.5377 30.9138 40.2834 29.4492 40.2834L29.3951 40.2832C28.9639 40.2805 28.5566 40.2781 28.2367 40.0584C28.0972 39.9625 28.0821 39.8833 28.0821 39.7372C28.0821 39.6231 28.1057 39.526 28.1509 39.4414C28.2728 39.455 28.3969 39.4641 28.5242 39.4641C28.7332 39.4641 28.9458 39.4428 29.1553 39.4048C29.1685 39.4031 29.1816 39.4019 29.1943 39.3982C30.1849 39.2073 31.0862 38.6144 31.0862 37.8253C31.0862 37.5115 30.9421 37.2291 30.7077 36.9901C30.9033 36.4573 31.0533 35.8637 31.1962 35.2848C31.3323 34.7337 31.4608 34.2133 31.6132 33.8287C33.102 30.0759 34.2274 26.7399 34.8685 24.6561C35.5189 24.6022 35.9944 24.5195 36.4592 24.4378C37.2479 24.2995 37.9926 24.1688 39.5531 24.1688C39.925 24.1688 40.2498 24.1764 40.541 24.1896L40.1091 25.4613C40.0516 25.6686 39.9799 25.8759 39.9101 26.0761L39.91 26.0763ZM24.9659 38.1512C24.9388 38.1312 24.8042 38.0222 24.8042 37.8252C24.8042 37.6279 24.9388 37.5189 24.9661 37.4991C25.1666 37.3516 25.2673 37.1828 25.2656 36.9975C25.2634 36.8139 25.1612 36.6498 24.9615 36.5095C24.9408 36.4952 24.922 36.4808 24.9054 36.4671C24.95 36.4627 25.0064 36.46 25.0776 36.46H25.0781C25.7462 36.46 26.1525 36.9046 26.3495 37.1997C26.2344 37.3928 26.1701 37.604 26.1701 37.8257C26.1701 38.0478 26.2344 38.259 26.3498 38.4524C26.154 38.7475 25.7506 39.1913 25.0869 39.1913H25.0791C24.9442 39.1906 24.8659 39.1752 24.8237 39.1623C24.8459 39.1272 24.8862 39.0794 24.9408 39.0394C25.0842 38.9345 25.2488 38.787 25.2495 38.576C25.2495 38.36 25.0856 38.2395 24.9659 38.1512L24.9659 38.1512ZM26.8907 38.2827C26.8885 38.2797 26.886 38.2768 26.8836 38.2739C26.7773 38.1359 26.7158 37.9842 26.7158 37.8252C26.7158 37.6662 26.777 37.5143 26.8836 37.3765C26.886 37.3736 26.8887 37.3704 26.8912 37.3672C27.1777 37.0048 27.7856 36.7456 28.4772 36.7344C28.2246 37.0516 28.0814 37.4316 28.0814 37.8254C28.0814 38.2193 28.2246 38.5992 28.4772 38.9165C27.7854 38.9048 27.177 38.6453 26.8907 38.2827L26.8907 38.2827ZM30.5398 37.8252C30.5398 38.2551 29.9321 38.6772 29.1827 38.8433C28.8299 38.5829 28.6277 38.2178 28.6277 37.8252C28.6277 37.4323 28.8299 37.0675 29.1827 36.807C29.9321 36.9731 30.5398 37.3952 30.5398 37.8252ZM24.8003 20.9364L26.401 11.3317H33.7089L29.4616 23.8093C28.7687 23.7074 27.9645 23.6225 26.7159 23.6225C25.3888 23.6225 24.6195 23.7186 23.9615 23.8288C24.4273 22.3683 24.7197 21.33 24.8002 20.9364L24.8003 20.9364ZM29.9038 28.582C30.0343 28.7866 30.1701 28.999 30.3057 29.2248C30.5656 29.6582 30.6305 30.0998 30.4983 30.538C30.303 31.1838 29.7472 31.6444 29.3334 31.8412C28.9988 31.9946 28.453 32.1841 27.8754 32.3838C27.0677 32.6635 26.2325 32.953 25.7631 33.2166C25.0393 33.6224 24.5906 33.9965 24.0485 34.6454C23.8565 34.8751 23.697 35.0602 23.5485 35.2319C23.2664 35.5589 23.0225 35.8413 22.6726 36.2971C21.4938 37.8985 20.2618 38.6442 18.7972 38.6442L18.743 38.644C18.3119 38.6413 17.9046 38.6389 17.5847 38.4192C17.4452 38.3231 17.43 38.2438 17.43 38.098C17.43 37.8258 17.5573 37.6354 17.8083 37.5308C18.7332 37.146 19.2253 36.8136 19.5631 36.3463C20.0442 35.6803 20.2986 34.6466 20.5449 33.6465C20.6807 33.0952 20.8088 32.5743 20.9614 32.1897C21.224 31.5271 21.4877 30.8448 21.7466 30.16C21.8491 30.1503 21.9515 30.1366 22.0534 30.1183C22.0671 30.1166 22.0805 30.1154 22.0937 30.1117C23.084 29.9208 23.9851 29.3279 23.9851 28.5388C23.9851 27.9545 23.4895 27.4788 22.8306 27.1929C23.1881 26.1775 23.5039 25.2418 23.7727 24.4159C24.5043 24.2856 25.2385 24.1686 26.7161 24.1686C27.882 24.1686 28.6301 24.2415 29.2922 24.3364C29.2803 24.3707 29.2688 24.4061 29.2566 24.4398C29.0815 24.9411 28.9008 25.4596 28.9008 26.0804C28.9008 27.011 29.3654 27.7392 29.9038 28.582L29.9038 28.582ZM17.8644 28.8646C17.8264 28.8366 17.7025 28.7308 17.7025 28.5386C17.7025 28.3464 17.8264 28.2404 17.8644 28.2125C18.0649 28.065 18.1658 27.8963 18.1639 27.7112C18.1619 27.5275 18.0595 27.3634 17.8598 27.2232C17.8391 27.2086 17.8205 27.1944 17.8037 27.1808C17.8486 27.1761 17.9039 27.1617 17.9764 27.1735C18.6448 27.1735 19.0508 27.618 19.2478 27.9131C19.1325 28.1062 19.0684 28.3177 19.0684 28.5391C19.0684 28.7612 19.1327 28.9729 19.2481 29.1658C19.0523 29.4604 18.6489 29.9042 17.9853 29.9042H17.9775C17.8427 29.9035 17.7644 29.8881 17.7222 29.8752C17.7444 29.8401 17.7847 29.7925 17.8398 29.7523C17.9832 29.6474 18.1478 29.4999 18.148 29.2887C18.148 29.0729 17.9841 28.9527 17.8644 28.8646L17.8644 28.8646ZM19.79 28.9968C19.7873 28.9932 19.7846 28.99 19.7814 28.9863C19.6754 28.8488 19.6144 28.6971 19.6144 28.5381C19.6144 28.3791 19.6756 28.2272 19.7819 28.0894C19.7846 28.0862 19.7871 28.0831 19.7895 28.0799C20.076 27.7175 20.6842 27.4583 21.3758 27.4471C21.1232 27.7643 20.98 28.1443 20.98 28.5381C20.98 28.9317 21.1232 29.3119 21.3758 29.6292C20.685 29.6182 20.0765 29.3595 19.79 28.9968L19.79 28.9968ZM23.4384 28.5386C23.4384 28.9685 22.8309 29.3906 22.0813 29.5565C21.7284 29.296 21.5265 28.9312 21.5265 28.5386C21.5265 28.1457 21.7287 27.7807 22.0815 27.5207C22.8312 27.6865 23.4384 28.1089 23.4384 28.5386H23.4384ZM17.2735 24.4376C18.0636 24.5739 18.8806 24.7149 20.4881 24.7149C21.762 24.7149 22.5219 24.6263 23.1628 24.5217C22.9175 25.2692 22.6339 26.1066 22.3137 27.0154C22.2383 26.9959 22.1625 26.9791 22.0857 26.9647C22.0791 26.963 22.0727 26.9625 22.0661 26.9615C21.8528 26.9218 21.6355 26.8998 21.4226 26.8998C20.6981 26.8998 20.0494 27.1293 19.6173 27.4888C19.3307 27.1086 18.8052 26.6267 17.9766 26.6267H17.9761C17.7878 26.6267 17.2881 26.6269 17.1762 26.981C17.1048 27.2071 17.236 27.4517 17.5459 27.6697C17.5742 27.6897 17.593 27.7058 17.6045 27.7175C17.5925 27.7306 17.5728 27.7492 17.5413 27.7723C17.4511 27.8387 17.157 28.0901 17.157 28.5385C17.157 28.975 17.4355 29.2245 17.5335 29.2989C17.5284 29.3031 17.523 29.3067 17.5172 29.3111C17.284 29.4816 17.0892 29.7783 17.1794 30.0576C17.2631 30.3156 17.5303 30.4477 17.9751 30.4504H17.9861C18.8103 30.4504 19.3334 29.9695 19.6185 29.5891C19.9977 29.9039 20.5427 30.1185 21.1597 30.1666C20.9261 30.7811 20.69 31.393 20.4537 31.988C20.2874 32.4074 20.1547 32.9461 20.0145 33.5161C19.7919 34.421 19.5392 35.4467 19.1205 36.0261C18.893 36.3409 18.547 36.6316 17.5986 37.0262C17.1443 37.215 16.8841 37.6059 16.8841 38.098C16.8841 38.3463 16.9304 38.6321 17.2757 38.8693C17.734 39.1841 18.2685 39.1873 18.7401 39.1902L18.795 39.1905C20.4272 39.1905 21.8394 38.3501 23.1087 36.6255C23.4457 36.1866 23.6847 35.9093 23.9615 35.5886C24.1117 35.4148 24.2731 35.2277 24.4672 34.9953C24.9618 34.4032 25.3708 34.0623 26.0301 33.6926C26.4574 33.4529 27.3061 33.1591 28.0542 32.9001C28.6446 32.6953 29.2028 32.5021 29.5642 32.3358C30.0822 32.09 30.7738 31.5127 31.0208 30.6961C31.1969 30.1127 31.1115 29.507 30.7735 28.9439C30.6353 28.7137 30.4968 28.4964 30.3638 28.2882C29.8515 27.4857 29.4469 26.8516 29.4469 26.0805C29.4469 25.5521 29.6049 25.099 29.7724 24.6191C29.7954 24.5537 29.8178 24.4869 29.8405 24.4206C29.8768 24.4264 29.9134 24.4323 29.9497 24.4381C30.793 24.5742 31.6651 24.7149 33.2709 24.7149C33.6515 24.7149 33.9859 24.7066 34.2866 24.693C33.643 26.7626 32.5461 29.9943 31.1049 33.6265C30.9388 34.0457 30.8059 34.5839 30.6655 35.1533C30.5406 35.6583 30.4111 36.1746 30.2529 36.6399C29.9419 36.4575 29.5708 36.3238 29.1862 36.2507C29.1799 36.2489 29.1735 36.2485 29.1672 36.2475C28.9538 36.208 28.7365 36.186 28.5239 36.186C27.7994 36.186 27.1507 36.4155 26.7183 36.775C26.4318 36.3948 25.9062 35.9129 25.0779 35.9129H25.0774C24.8891 35.9129 24.3894 35.9131 24.2775 36.2675C24.2061 36.4935 24.3373 36.7381 24.6472 36.9561C24.6755 36.9761 24.6943 36.9924 24.7058 37.0041C24.6938 37.0173 24.6743 37.0356 24.6428 37.0588C24.5526 37.1249 24.2583 37.3758 24.2583 37.8252C24.2583 38.2622 24.5368 38.5117 24.6348 38.5856C24.6297 38.5897 24.6241 38.5934 24.6184 38.5975C24.3853 38.7682 24.1902 39.0655 24.2807 39.3442C24.3643 39.6023 24.6319 39.7344 25.0764 39.7371H25.0874C25.9116 39.7371 26.4347 39.256 26.7196 38.8758C26.9566 39.0731 27.2588 39.2308 27.6028 39.3333C27.5592 39.4576 27.5355 39.592 27.5355 39.7376C27.5355 39.9858 27.5819 40.2719 27.9272 40.5089C28.3851 40.8237 28.9199 40.8269 29.3915 40.8298L29.4469 40.8291C31.0793 40.8291 32.4913 39.9887 33.7606 38.2641C34.0983 37.824 34.3381 37.5465 34.6156 37.2246C34.765 37.0514 34.9258 36.8654 35.1191 36.6342C35.6139 36.0419 36.0229 35.701 36.682 35.3315C37.1093 35.0918 37.9579 34.7979 38.7061 34.539C39.2965 34.3341 39.8547 34.141 40.2161 33.9747C40.7341 33.7289 41.4257 33.1516 41.6727 32.3349C41.8488 31.7516 41.7634 31.1458 41.4254 30.5828C41.2872 30.3523 41.1486 30.1351 41.0157 29.9268C40.9392 29.8068 40.8655 29.69 40.7936 29.5747C40.9387 29.4988 41.0716 29.4127 41.1879 29.3159C41.473 29.6961 41.9958 30.1773 42.8203 30.1773H42.8313C43.2758 30.1748 43.5433 30.0429 43.627 29.7844C43.7172 29.5052 43.5221 29.2084 43.2895 29.0382C43.2836 29.0338 43.278 29.0296 43.2729 29.0255C43.3707 28.9514 43.6494 28.7016 43.6494 28.2651C43.6494 27.8167 43.3553 27.5655 43.2651 27.4987C43.2336 27.4755 43.2136 27.4572 43.2019 27.4441C43.2134 27.4324 43.2317 27.416 43.2605 27.396C43.5704 27.1782 43.7016 26.9337 43.6302 26.7074C43.5182 26.3533 43.0185 26.353 42.8303 26.353H42.8298C42.0012 26.353 41.4757 26.8349 41.1891 27.2151C40.9431 27.0105 40.6266 26.8486 40.2659 26.7466C40.3151 26.5835 40.3683 26.4208 40.4266 26.2531C40.499 26.0451 40.5732 25.83 40.6309 25.6217L41.1053 24.2246C41.7234 24.2756 42.1775 24.3549 42.6462 24.437C43.3778 24.5653 44.1333 24.698 45.5616 24.7129V42.4457C45.0929 42.4106 44.6169 42.3738 44.1287 42.3365C42.023 42.1748 39.7765 42.0024 37.4101 41.8704C37.4645 41.3991 37.5898 40.7211 37.8852 40.131C37.9276 40.0461 37.9232 39.9457 37.8732 39.8649C37.8237 39.785 37.7357 39.7364 37.641 39.7364H37.6406C37.6059 39.7364 37.0938 39.7501 36.5512 40.248C36.4032 39.595 36.2015 39.0919 35.9474 38.7532C35.896 38.6844 35.815 38.6439 35.7289 38.6439C35.6429 38.6439 35.5621 38.6844 35.5104 38.753C35.2561 39.0917 35.0544 39.5945 34.9064 40.2469C34.364 39.7494 33.8522 39.7362 33.8171 39.7362H33.8168C33.722 39.7362 33.6344 39.7855 33.5844 39.8657C33.5344 39.9462 33.53 40.0469 33.5725 40.1318C33.8334 40.6531 33.9627 41.2421 34.028 41.7198C32.7129 41.6757 31.3682 41.6484 29.9936 41.6484C25.3806 41.6484 21.0862 41.9405 17.2225 42.2329C17.2891 41.7632 17.4186 41.1882 17.6737 40.6781C17.7161 40.5932 17.7117 40.4927 17.6617 40.412C17.6117 40.3313 17.5239 40.2828 17.4296 40.2828H17.4291C17.3942 40.2828 16.8826 40.2969 16.3405 40.7949C16.1924 40.1421 15.9905 39.6387 15.7364 39.2998C15.6849 39.231 15.604 39.1905 15.5179 39.1905C15.4318 39.1905 15.3511 39.231 15.2994 39.2998C15.0451 39.6385 14.8434 40.1416 14.6956 40.7949C14.6029 40.7093 14.5122 40.6386 14.4254 40.5803L14.4252 24.1697C15.8037 24.184 16.519 24.3072 17.2735 24.4372L17.2735 24.4376ZM46.6537 43.0145C46.6537 43.9183 45.9187 44.6532 45.015 44.6532H14.9712C14.0674 44.6532 13.3324 43.9183 13.3324 43.0145V23.3495H13.8787V42.7411C13.8787 42.7459 13.8801 42.7508 13.8801 42.7557C13.8801 42.7576 13.8794 42.7593 13.8794 42.761C13.8797 42.7637 13.8811 42.7657 13.8814 42.7684C13.8965 43.5085 14.501 44.1067 15.2443 44.1067H44.7418C45.4856 44.1067 46.0899 43.5083 46.1048 42.7682C46.105 42.7657 46.1065 42.7638 46.1067 42.7613C46.107 42.7594 46.106 42.7577 46.106 42.756C46.106 42.7511 46.1075 42.7462 46.1075 42.7413L46.1072 23.3491H46.6535V43.0142L46.6537 43.0145Z" fill="black"/>
</svg>
