<svg width="60" height="60" viewBox="0 0 60 60" fill="none" xmlns="http://www.w3.org/2000/svg">
<rect width="60" height="60" rx="30" fill="#FFA9A9" fill-opacity="0.88"/>
<path d="M25.3453 44.7002C25.2652 44.7459 25.1739 44.768 25.0832 44.7638C24.9924 44.7596 24.9061 44.7292 24.8352 44.6764C24.7643 44.6237 24.7119 44.551 24.6847 44.4675C24.6575 44.3839 24.6566 44.2933 24.6822 44.207L32.6323 17.6075C32.6669 17.4917 32.7467 17.392 32.8542 17.3304C32.9616 17.2688 33.0879 17.2503 33.2053 17.2789C33.3227 17.3075 33.4215 17.381 33.48 17.4831C33.5386 17.5852 33.552 17.7075 33.5174 17.8233L25.5679 44.4226C25.5507 44.48 25.5222 44.5341 25.484 44.5818C25.4458 44.6294 25.3987 44.6696 25.3453 44.7002Z" fill="black"/>
<path d="M34.4934 44.4696C33.1239 45.2553 31.5793 45.6776 30.0205 45.6924C29.9589 45.6947 29.898 45.6849 29.8413 45.6636C29.7847 45.6424 29.7336 45.6101 29.6909 45.5686C29.6482 45.5272 29.6149 45.4775 29.5928 45.4225C29.5708 45.3674 29.5605 45.3081 29.5626 45.2481C29.5647 45.188 29.579 45.1285 29.6049 45.0729C29.6307 45.0173 29.6675 44.9669 29.7131 44.9246C29.7586 44.8822 29.8121 44.8488 29.8702 44.8264C29.9283 44.8039 29.9899 44.7929 30.0514 44.7938C31.7856 44.7751 33.4898 44.1952 34.8963 43.1452C36.3027 42.0953 37.3316 40.6347 37.8215 38.9931L41.9086 25.3181C41.9249 25.26 41.9527 25.205 41.9906 25.1565C42.0284 25.108 42.0755 25.0669 42.129 25.0356C42.1825 25.0043 42.2414 24.9834 42.3023 24.9742C42.3631 24.9649 42.4247 24.9676 42.4835 24.9819C42.5423 24.9962 42.597 25.0219 42.6445 25.0575C42.692 25.093 42.7313 25.1378 42.7602 25.1892C42.789 25.2405 42.8068 25.2974 42.8125 25.3565C42.8183 25.4156 42.8118 25.4758 42.7935 25.5335L38.7036 39.21C38.3791 40.2983 37.8402 41.3229 37.1177 42.2254C36.3953 43.1279 35.5036 43.8905 34.4934 44.4696Z" fill="black"/>
<path d="M27.2588 50.2279C26.6412 50.5841 25.9626 50.8205 25.2622 50.9233C24.5619 51.026 23.8537 50.9932 23.1786 50.8266C23.1205 50.8125 23.0663 50.7872 23.0192 50.7521C22.972 50.7171 22.9328 50.6731 22.9038 50.6225C22.8749 50.572 22.8566 50.5159 22.8502 50.4575C22.8438 50.3991 22.8494 50.3396 22.8665 50.2822L28.178 32.5108C28.1951 32.4535 28.2235 32.3995 28.2616 32.3519C28.2997 32.3044 28.3466 32.2642 28.3999 32.2337C28.4531 32.2032 28.5115 32.183 28.5717 32.1741C28.632 32.1653 28.6929 32.1681 28.751 32.1823C30.1138 32.5163 31.2609 33.3698 31.9407 34.5555C32.6206 35.7413 32.7776 37.1624 32.3774 38.5072L29.8363 47.0095C29.639 47.6761 29.3096 48.3038 28.8672 48.8562C28.4248 49.4087 27.8781 49.8749 27.2588 50.2279ZM23.8883 50.0393C24.9674 50.1869 26.0821 49.9371 27.0173 49.3379C27.9525 48.7388 28.6419 47.8329 28.9525 46.7949L31.4939 38.2918C31.8024 37.2538 31.7107 36.1582 31.2366 35.2158C30.7625 34.2733 29.9394 33.5506 28.9257 33.1866L23.8883 50.0393Z" fill="black"/>
<path d="M28.8163 43.9551C28.7362 44.001 28.6449 44.0234 28.5541 44.0193C28.4632 44.0153 28.3768 43.985 28.3058 43.9323C28.2348 43.8796 28.1824 43.8069 28.1552 43.7233C28.128 43.6397 28.1272 43.549 28.1529 43.4627L29.1845 40.0126C29.2208 39.8987 29.3009 39.8013 29.4077 39.7413C29.5144 39.6814 29.6392 39.6637 29.7552 39.692C29.8712 39.7203 29.9691 39.7925 30.0278 39.8929C30.0865 39.9933 30.1014 40.1139 30.0692 40.2288L29.0381 43.6786C29.021 43.7358 28.9926 43.7897 28.9545 43.8372C28.9165 43.8846 28.8695 43.9247 28.8163 43.9551Z" fill="black"/>
<path d="M28.2958 45.6995C28.2157 45.7457 28.1244 45.7682 28.0335 45.7642C27.9425 45.7602 27.8561 45.7299 27.785 45.6771C27.714 45.6243 27.6616 45.5514 27.6346 45.4677C27.6075 45.384 27.607 45.2932 27.633 45.2069L27.7475 44.8221C27.7647 44.7648 27.7931 44.7108 27.8312 44.6633C27.8692 44.6158 27.9162 44.5756 27.9694 44.5451C28.0226 44.5146 28.081 44.4943 28.1413 44.4855C28.2015 44.4767 28.2624 44.4794 28.3206 44.4936C28.3787 44.5078 28.4329 44.5331 28.48 44.5681C28.5271 44.6031 28.5663 44.6472 28.5953 44.6977C28.6243 44.7483 28.6425 44.8044 28.6489 44.8627C28.6553 44.9211 28.6498 44.9807 28.6327 45.038L28.5176 45.423C28.5005 45.4803 28.4721 45.5342 28.4341 45.5816C28.396 45.6291 28.349 45.6691 28.2958 45.6995Z" fill="black"/>
<path d="M21.4894 40.8323C21.382 40.8939 21.2557 40.9125 21.1384 40.8839C21.021 40.8552 20.9223 40.7818 20.8637 40.6798L20.6484 40.3042C20.5899 40.2021 20.5764 40.0798 20.611 39.964C20.6456 39.8483 20.7254 39.7487 20.8328 39.6871C20.9403 39.6255 21.0665 39.607 21.1839 39.6356C21.3012 39.6642 21.4 39.7376 21.4585 39.8397L21.6739 40.2153C21.7324 40.3173 21.7458 40.4397 21.7112 40.5554C21.6766 40.6711 21.5969 40.7708 21.4894 40.8323Z" fill="black"/>
<path d="M22.7738 43.0725C22.6664 43.1341 22.5401 43.1526 22.4228 43.124C22.3054 43.0954 22.2066 43.022 22.1481 42.9199L21.9328 42.5443C21.8743 42.4423 21.8608 42.3199 21.8954 42.2042C21.93 42.0885 22.0098 41.9889 22.1172 41.9273C22.2246 41.8657 22.3509 41.8472 22.4683 41.8758C22.5856 41.9044 22.6844 41.9778 22.7429 42.0799L22.9582 42.4555C23.0168 42.5575 23.0302 42.6799 22.9956 42.7956C22.961 42.9113 22.8813 43.0109 22.7738 43.0725Z" fill="black"/>
<path d="M21.0426 42.3273L20.6473 42.5539C20.5398 42.6155 20.4136 42.6341 20.2962 42.6055C20.1789 42.5768 20.0801 42.5034 20.0216 42.4014C19.9631 42.2993 19.9496 42.177 19.9842 42.0612C20.0188 41.9455 20.0986 41.8459 20.206 41.7843L20.6013 41.5576C20.7088 41.496 20.835 41.4775 20.9524 41.5061C21.0697 41.5347 21.1685 41.6082 21.227 41.7102C21.2855 41.8123 21.299 41.9346 21.2644 42.0503C21.2298 42.1661 21.15 42.2657 21.0426 42.3273Z" fill="black"/>
<path d="M23.4006 40.9753L23.0042 41.2026C22.8967 41.2642 22.7705 41.2827 22.6531 41.2541C22.5358 41.2255 22.437 41.1521 22.3785 41.05C22.32 40.948 22.3065 40.8256 22.3411 40.7099C22.3757 40.5942 22.4555 40.4946 22.5629 40.433L22.9582 40.2063C23.0657 40.1447 23.1919 40.1262 23.3093 40.1548C23.4266 40.1834 23.5254 40.2568 23.5839 40.3589C23.6425 40.461 23.6559 40.5833 23.6213 40.699C23.5867 40.8148 23.507 40.9144 23.3995 40.976L23.4006 40.9753Z" fill="black"/>
<path d="M21.7379 30.7756C21.6304 30.8372 21.5042 30.8558 21.3868 30.8271C21.2695 30.7985 21.1707 30.7251 21.1122 30.6231L20.8968 30.2475C20.8383 30.1454 20.8249 30.0231 20.8594 29.9073C20.894 29.7916 20.9738 29.692 21.0812 29.6304C21.1887 29.5688 21.315 29.5503 21.4323 29.5789C21.5496 29.6075 21.6484 29.6809 21.7069 29.783L21.9223 30.1586C21.9808 30.2606 21.9943 30.383 21.9597 30.4987C21.9251 30.6144 21.8453 30.7141 21.7379 30.7756Z" fill="black"/>
<path d="M23.0223 33.0158C22.9148 33.0774 22.7886 33.096 22.6712 33.0673C22.5539 33.0387 22.4551 32.9653 22.3966 32.8633L22.1812 32.4877C22.1227 32.3856 22.1093 32.2633 22.1438 32.1475C22.1784 32.0318 22.2582 31.9322 22.3656 31.8706C22.4731 31.809 22.5994 31.7905 22.7167 31.8191C22.834 31.8477 22.9328 31.9211 22.9913 32.0232L23.2067 32.3988C23.2652 32.5008 23.2787 32.6232 23.2441 32.7389C23.2095 32.8546 23.1297 32.9542 23.0223 33.0158Z" fill="black"/>
<path d="M21.2905 32.2709L20.8957 32.4973C20.7883 32.5589 20.662 32.5774 20.5447 32.5488C20.4273 32.5202 20.3285 32.4468 20.27 32.3447C20.2115 32.2426 20.198 32.1203 20.2326 32.0046C20.2672 31.8888 20.347 31.7892 20.4544 31.7276L20.8492 31.5013C20.9567 31.4397 21.0829 31.4211 21.2003 31.4498C21.3176 31.4784 21.4164 31.5518 21.4749 31.6539C21.5335 31.7559 21.5469 31.8783 21.5123 31.994C21.4777 32.1097 21.3979 32.2093 21.2905 32.2709Z" fill="black"/>
<path d="M23.6491 30.9187L23.2537 31.1453C23.1463 31.2069 23.02 31.2254 22.9027 31.1968C22.7853 31.1682 22.6865 31.0948 22.628 30.9927C22.5695 30.8907 22.5561 30.7683 22.5906 30.6526C22.6252 30.5369 22.705 30.4373 22.8124 30.3757L23.2078 30.149C23.3152 30.0874 23.4415 30.0689 23.5588 30.0975C23.6762 30.1261 23.775 30.1995 23.8335 30.3016C23.892 30.4037 23.9054 30.526 23.8709 30.6417C23.8363 30.7574 23.7565 30.8571 23.6491 30.9187Z" fill="black"/>
</svg>
